
<svg version="1.0" xmlns="http://www.w3.org/2000/svg"
 width="512.000000pt" height="512.000000pt" viewBox="0 0 512.000000 512.000000"
 preserveAspectRatio="xMidYMid meet">
=
<g transform="translate(0.000000,512.000000) scale(0.100000,-0.100000)"
fill="#000000" stroke="none">
<path d="M3821 2721 c-16 -28 -15 -29 29 -36 70 -12 70 -11 70 -254 0 -263 -2
-280 -42 -288 -28 -6 -56 -38 -43 -51 12 -12 280 -14 351 -3 140 21 254 106
291 214 22 65 21 186 -1 246 -25 67 -78 126 -144 158 -56 28 -59 28 -279 31
-214 4 -222 3 -232 -17z m328 -42 c75 -12 107 -27 152 -71 49 -50 72 -111 72
-193 0 -102 -17 -152 -72 -206 -45 -46 -96 -69 -151 -69 -44 0 -99 20 -110 40
-6 11 -10 114 -10 254 0 282 -8 266 119 245z"/>
<path d="M4567 2733 c-20 -19 -5 -41 36 -49 l42 -9 2 -250 c2 -138 -1 -256 -6
-263 -5 -8 -24 -17 -42 -21 -24 -5 -35 -13 -37 -28 -3 -20 2 -21 135 -28 197
-10 292 11 366 79 86 80 72 214 -27 267 l-45 24 28 30 c37 39 51 67 51 104 0
68 -45 122 -116 140 -46 12 -376 15 -387 4z m328 -68 c17 -9 38 -27 46 -42 21
-39 16 -100 -11 -129 -21 -21 -32 -24 -97 -24 l-73 0 0 98 c0 54 3 102 7 105
12 13 95 7 128 -8z m33 -279 c135 -70 66 -260 -87 -243 -71 8 -81 27 -81 159
l0 111 68 -5 c37 -3 82 -13 100 -22z"/>
<path d="M2341 2521 c-8 -5 -43 -15 -78 -22 -74 -15 -83 -36 -28 -62 l35 -17
0 -135 0 -136 -30 -10 c-22 -8 -30 -17 -30 -35 0 -24 0 -24 115 -24 115 0 115
0 115 24 0 19 -7 26 -30 31 l-30 7 0 138 0 138 46 18 c42 16 48 16 79 1 45
-22 57 -65 53 -192 -3 -96 -4 -99 -28 -105 -18 -4 -26 -13 -28 -33 l-3 -28
113 3 c106 3 113 4 116 24 2 16 -5 23 -30 30 l-33 10 -6 136 c-7 167 -21 203
-92 232 -53 22 -97 15 -161 -29 l-36 -24 0 34 c0 36 -5 41 -29 26z"/>
<path d="M920 2505 c-25 -7 -57 -16 -72 -19 -39 -9 -35 -22 12 -46 l41 -21 -3
-137 -3 -137 -32 -10 c-25 -7 -33 -15 -33 -32 0 -24 1 -24 113 -21 108 3 112
4 115 26 3 17 -1 22 -20 22 -43 0 -48 16 -48 146 0 137 4 145 68 165 87 26
122 -24 122 -176 0 -108 -9 -135 -45 -135 -20 0 -25 -5 -25 -25 l0 -26 113 3
c108 3 112 4 115 26 3 16 -2 22 -16 22 -51 0 -52 4 -52 145 0 147 2 152 64
162 93 15 116 -20 116 -175 0 -111 -7 -132 -42 -132 -13 0 -18 -8 -18 -25 l0
-25 109 0 c90 0 110 3 115 16 8 20 -1 34 -22 34 -43 1 -47 13 -47 152 -1 140
-8 171 -54 212 -35 32 -108 33 -168 2 -29 -14 -54 -30 -58 -36 -3 -5 -18 5
-34 22 -22 24 -37 32 -77 35 -41 4 -59 0 -106 -26 l-58 -30 0 30 c0 32 -4 33
-70 14z"/>
<path d="M1794 2496 c-88 -41 -133 -129 -119 -230 10 -82 44 -135 105 -166
112 -56 256 -13 312 92 17 33 23 60 23 118 0 87 -17 124 -78 174 -35 28 -47
31 -115 34 -65 2 -85 -1 -128 -22z m152 -51 c77 -50 95 -236 29 -292 -73 -63
-190 19 -195 137 -5 94 -1 111 35 147 31 31 40 35 71 30 20 -3 47 -13 60 -22z"/>
<path d="M2903 2495 c-73 -34 -95 -71 -90 -154 3 -61 5 -66 45 -102 l42 -37
-35 -21 c-42 -25 -44 -45 -7 -79 l29 -27 -43 -33 c-65 -49 -70 -99 -19 -161
34 -40 82 -54 169 -49 133 6 225 78 234 182 8 96 -23 120 -176 135 -92 8 -121
19 -108 39 3 6 25 13 49 17 53 9 105 35 137 69 19 21 25 40 28 91 4 63 5 65
31 65 35 0 51 17 51 53 0 24 -3 28 -17 22 -38 -16 -74 -17 -119 -1 -69 23
-139 20 -201 -9z m134 -49 c25 -22 28 -31 28 -84 0 -72 -21 -102 -71 -102 -57
0 -108 88 -89 152 19 62 81 78 132 34z m66 -403 c90 -46 30 -153 -86 -153 -74
0 -137 41 -137 90 0 26 38 71 70 83 23 9 122 -4 153 -20z"/>
<path d="M3425 2496 c-105 -48 -146 -145 -114 -271 14 -56 69 -120 117 -136
174 -57 343 76 317 250 -18 120 -88 181 -207 181 -45 0 -77 -7 -113 -24z m135
-45 c52 -27 80 -88 80 -173 0 -102 -30 -148 -97 -148 -15 0 -43 9 -61 20 -89
55 -105 261 -23 305 35 19 60 18 101 -4z"/>
</g>
</svg>
